<?xml version="1.0" standalone="no"?>
<!DOCTYPE svg PUBLIC "-//W3C//DTD SVG 20010904//EN"
 "http://www.w3.org/TR/2001/REC-SVG-20010904/DTD/svg10.dtd">
<svg version="1.0" xmlns="http://www.w3.org/2000/svg"
 width="150.000000pt" height="150.000000pt" viewBox="0 0 150.000000 150.000000"
 preserveAspectRatio="xMidYMid meet">
<metadata>
Created by potrace 1.16, written by Peter Selinger 2001-2019
</metadata>
<g transform="translate(0.000000,150.000000) scale(0.100000,-0.100000)"
fill="#000000" stroke="none">
<path d="M0 750 l0 -750 748 2 747 3 3 748 2 747 -750 0 -750 0 0 -750z m921
440 c17 -10 19 -22 19 -130 l0 -119 123 -3 122 -3 0 -185 0 -185 -122 -3 -122
-3 -3 -122 -3 -122 -185 0 -185 0 -3 122 -3 123 -119 0 c-108 0 -120 2 -130
19 -13 26 -13 316 0 342 10 17 22 19 130 19 l120 0 0 120 c0 103 2 120 18 129
23 14 318 14 343 1z"/>
<path d="M727 918 c-21 -176 -21 -197 -1 -205 18 -7 224 28 224 38 0 3 -34 12
-76 19 -90 16 -86 9 -105 173 -7 64 -16 117 -19 117 -3 0 -14 -64 -23 -142z"/>
</g>
</svg>
